<svg xmlns="http://www.w3.org/2000/svg" viewBox="0 0 128 128" width="128" height="128">
  <defs>
    <linearGradient id="bg" x1="0%" y1="0%" x2="100%" y2="100%">
      <stop offset="0%" style="stop-color:#1a5276"/>
      <stop offset="100%" style="stop-color:#2e86c1"/>
    </linearGradient>
  </defs>
  <!-- Background -->
  <rect width="128" height="128" rx="20" fill="url(#bg)"/>
  <!-- Calculator/Ledger icon -->
  <rect x="30" y="20" width="68" height="88" rx="6" fill="#fff" opacity="0.95"/>
  <rect x="36" y="26" width="56" height="20" rx="3" fill="#1a5276"/>
  <!-- Display text -->
  <text x="64" y="41" text-anchor="middle" fill="#fff" font-size="12" font-family="Arial" font-weight="bold">محاسب</text>
  <!-- Grid lines -->
  <line x1="36" y1="55" x2="92" y2="55" stroke="#dee2e6" stroke-width="1"/>
  <line x1="36" y1="68" x2="92" y2="68" stroke="#dee2e6" stroke-width="1"/>
  <line x1="36" y1="81" x2="92" y2="81" stroke="#dee2e6" stroke-width="1"/>
  <line x1="36" y1="94" x2="92" y2="94" stroke="#dee2e6" stroke-width="1"/>
  <!-- Buttons -->
  <rect x="38" y="57" width="12" height="9" rx="2" fill="#2e86c1"/>
  <rect x="53" y="57" width="12" height="9" rx="2" fill="#2e86c1"/>
  <rect x="68" y="57" width="12" height="9" rx="2" fill="#2e86c1"/>
  <rect x="83" y="57" width="7" height="9" rx="2" fill="#e74c3c"/>
  <rect x="38" y="70" width="12" height="9" rx="2" fill="#2e86c1"/>
  <rect x="53" y="70" width="12" height="9" rx="2" fill="#2e86c1"/>
  <rect x="68" y="70" width="12" height="9" rx="2" fill="#2e86c1"/>
  <rect x="83" y="70" width="7" height="9" rx="2" fill="#27ae60"/>
  <rect x="38" y="83" width="12" height="9" rx="2" fill="#85929e"/>
  <rect x="53" y="83" width="12" height="9" rx="2" fill="#85929e"/>
  <rect x="68" y="83" width="22" height="9" rx="2" fill="#27ae60"/>
  <!-- AI sparkle -->
  <circle cx="100" cy="24" r="14" fill="#f39c12"/>
  <text x="100" y="29" text-anchor="middle" fill="#fff" font-size="14" font-family="Arial">AI</text>
</svg>
